<svg width="512" height="512" viewBox="0 0 512 512" fill="none" xmlns="http://www.w3.org/2000/svg">
  <rect width="512" height="512" rx="96" fill="#1e3a5f"/>
  <path d="M256 128C227.667 128 199.333 133.333 176 144V352C199.333 341.333 227.667 336 256 336C284.333 336 312.667 341.333 336 352V144C312.667 133.333 284.333 128 256 128Z" stroke="white" stroke-width="24" stroke-linecap="round" stroke-linejoin="round" fill="none"/>
  <path d="M176 144C152.667 154.667 134.667 170.667 128 192V384C134.667 362.667 152.667 346.667 176 336V144Z" stroke="white" stroke-width="24" stroke-linecap="round" stroke-linejoin="round" fill="none"/>
  <path d="M336 144C359.333 154.667 377.333 170.667 384 192V384C377.333 362.667 359.333 346.667 336 336V144Z" stroke="white" stroke-width="24" stroke-linecap="round" stroke-linejoin="round" fill="none"/>
  <circle cx="256" cy="400" r="16" fill="#e8c49d"/>
</svg>
